<svg xmlns="http://www.w3.org/2000/svg" viewBox="0 0 1321.51 307.57"><defs><style>.cls-1{fill:#fff;}</style></defs><title>Asset 30</title><g id="Layer_2" data-name="Layer 2"><g id="Layer_1-2" data-name="Layer 1"><path class="cls-1" d="M224.21,241.11V40.89h85.45A58.71,58.71,0,0,1,336,46.81a67.52,67.52,0,0,1,20.58,15.51A73.87,73.87,0,0,1,370.15,84a64.55,64.55,0,0,1,4.93,24.53A70.25,70.25,0,0,1,370.43,134a72.42,72.42,0,0,1-13,21.71,61.16,61.16,0,0,1-20.16,15.23,60.24,60.24,0,0,1-26.23,5.64H270.46v64.58Zm46.25-104.9h37.79q8.17,0,14.1-7.05t5.92-20.59a35.88,35.88,0,0,0-1.83-12.13A25,25,0,0,0,321.5,88a18.92,18.92,0,0,0-7.05-4.93,21.51,21.51,0,0,0-7.89-1.55h-36.1Z" transform="translate(-0.8 -35.25)"/><path class="cls-1" d="M448.12,243.93q-18.9,0-33.7-6.2A73.35,73.35,0,0,1,389.47,221a70.68,70.68,0,0,1-15.37-24.54,84.2,84.2,0,0,1,0-58.37,70.68,70.68,0,0,1,15.37-24.54,75.13,75.13,0,0,1,24.95-16.92q14.81-6.35,33.7-6.34t33.56,6.34A75.69,75.69,0,0,1,506.5,113.5,72.84,72.84,0,0,1,522,138a81,81,0,0,1,5.35,29.19,82.81,82.81,0,0,1-5.21,29.18A70.83,70.83,0,0,1,506.78,221a73.49,73.49,0,0,1-25,16.78Q467,243.93,448.12,243.93Zm-33-76.7q0,17.47,9.3,28.05a30.17,30.17,0,0,0,23.69,10.58,29.75,29.75,0,0,0,13-2.82,31.12,31.12,0,0,0,10.3-7.9,38.09,38.09,0,0,0,6.91-12.26,46.79,46.79,0,0,0,2.53-15.65q0-17.49-9.3-28.06a29.88,29.88,0,0,0-23.41-10.58,30.64,30.64,0,0,0-23.55,10.72,37.88,37.88,0,0,0-6.9,12.26A46.59,46.59,0,0,0,415.13,167.23Z" transform="translate(-0.8 -35.25)"/><path class="cls-1" d="M595.32,243.93a117.84,117.84,0,0,1-37.22-6.06,84.84,84.84,0,0,1-31-17.63l16.07-27.63A134.29,134.29,0,0,0,569.52,207a67,67,0,0,0,24.67,5.07q8.74,0,13.54-3.1a10.1,10.1,0,0,0,4.79-9q0-5.92-6.06-9.45T585.17,183q-15-4.23-25.24-8.18a71,71,0,0,1-16.78-8.74,28.24,28.24,0,0,1-9.3-11A35,35,0,0,1,531,140.44,46.08,46.08,0,0,1,548,104.06,58.61,58.61,0,0,1,566.7,93.91a73,73,0,0,1,23.55-3.67,104.79,104.79,0,0,1,31.16,4.51q14.52,4.52,28.06,16.36L632,138.18q-12.69-8.75-22.56-12.69a51.5,51.5,0,0,0-19.17-3.95,24.26,24.26,0,0,0-12.41,3q-5.08,3-5.08,9.45a10,10,0,0,0,5.5,9.31q5.5,3.11,20.45,6.76a259.86,259.86,0,0,1,26.64,8.46A71.18,71.18,0,0,1,643,167.93a32,32,0,0,1,9.87,12A38.27,38.27,0,0,1,656,196q0,22-16.35,35T595.32,243.93Z" transform="translate(-0.8 -35.25)"/><path class="cls-1" d="M662.72,76.14V35.25h45.12V76.14Zm0,165v-148h45.12V241.11Z" transform="translate(-0.8 -35.25)"/><path class="cls-1" d="M821.48,233.21a177.31,177.31,0,0,1-21.29,7.33,88.22,88.22,0,0,1-24.11,3.39,58.18,58.18,0,0,1-15.93-2.12A35.53,35.53,0,0,1,747,235.05a31.62,31.62,0,0,1-8.88-12.27q-3.24-7.62-3.24-18.33V127.18H716V93.06h18.9V46H780v47.1H810.2v34.12H780v61.76q0,7.34,3.66,10.57a13.5,13.5,0,0,0,9.31,3.25,34.79,34.79,0,0,0,10.43-1.69,64.33,64.33,0,0,0,9.31-3.67Z" transform="translate(-0.8 -35.25)"/><path class="cls-1" d="M922.43,131.69a86.53,86.53,0,0,0-29.6,5.36q-13.26,5.08-19.18,15.23v88.83H828.53v-148H870V123q7.62-14.94,19.6-23.41A45.27,45.27,0,0,1,915.1,90.8h4.51a14.21,14.21,0,0,1,2.82.29Z" transform="translate(-0.8 -35.25)"/><path class="cls-1" d="M978.83,243.93q-22.85,0-34.54-14.24t-11.71-41.88V93.06H977.7v84.88q0,13.53,5.36,20.73t15.23,7.19a35.08,35.08,0,0,0,17.48-4.79q8.46-4.8,15-16.64V93.06h45.12v97.29c0,4.51.7,7.66,2.12,9.45s3.89,2.87,7.47,3.24v38.07a94.64,94.64,0,0,1-11,1.83c-3,.28-5.74.43-8.18.43q-24.26,0-27.63-18.9l-.85-9A61.67,61.67,0,0,1,1012.53,237,80.1,80.1,0,0,1,978.83,243.93Z" transform="translate(-0.8 -35.25)"/><path class="cls-1" d="M1156.49,243.93a117.84,117.84,0,0,1-37.22-6.06,84.92,84.92,0,0,1-31-17.63l16.07-27.63A134.29,134.29,0,0,0,1130.69,207a67,67,0,0,0,24.67,5.07q8.75,0,13.54-3.1a10.1,10.1,0,0,0,4.79-9q0-5.92-6.06-9.45T1146.34,183q-15-4.23-25.24-8.18a71,71,0,0,1-16.78-8.74,28.32,28.32,0,0,1-9.3-11,35,35,0,0,1-2.82-14.66,46.08,46.08,0,0,1,16.92-36.38,58.61,58.61,0,0,1,18.75-10.15,73,73,0,0,1,23.55-3.67,104.79,104.79,0,0,1,31.16,4.51q14.52,4.52,28.06,16.36l-17.49,27.07q-12.69-8.75-22.56-12.69a51.5,51.5,0,0,0-19.17-3.95,24.28,24.28,0,0,0-12.41,3q-5.09,3-5.08,9.45a10.06,10.06,0,0,0,5.5,9.31q5.5,3.11,20.45,6.76a260.93,260.93,0,0,1,26.65,8.46,71.28,71.28,0,0,1,17.62,9.45,32,32,0,0,1,9.87,12,38.27,38.27,0,0,1,3.1,16.07q0,22-16.35,35T1156.49,243.93Z" transform="translate(-0.8 -35.25)"/><path class="cls-1" d="M1322.31,233.21a178.12,178.12,0,0,1-21.3,7.33,88.16,88.16,0,0,1-24.11,3.39,58.23,58.23,0,0,1-15.93-2.12,35.56,35.56,0,0,1-13.11-6.76,31.54,31.54,0,0,1-8.89-12.27q-3.24-7.62-3.24-18.33V127.18h-18.89V93.06h18.89V46h45.12v47.1H1311v34.12h-30.18v61.76q0,7.34,3.67,10.57a13.47,13.47,0,0,0,9.3,3.25,34.85,34.85,0,0,0,10.44-1.69,63.72,63.72,0,0,0,9.3-3.67Z" transform="translate(-0.8 -35.25)"/><path class="cls-1" d="M8.4,268.18l18.8,47.76,18.72-47.76h7.6L30.32,325H24.08L.8,268.18Z" transform="translate(-0.8 -35.25)"/><path class="cls-1" d="M65.2,325.78a15.2,15.2,0,0,1-5.52-1A13.77,13.77,0,0,1,55.24,322a13,13,0,0,1-3-4.12,12.23,12.23,0,0,1-1.08-5.16,10.84,10.84,0,0,1,1.28-5.24,11.94,11.94,0,0,1,3.64-4,18.73,18.73,0,0,1,5.6-2.64,24.84,24.84,0,0,1,7.08-1,35.11,35.11,0,0,1,6.16.56,28.18,28.18,0,0,1,5.52,1.52v-3.36a11,11,0,0,0-2.88-8q-2.88-2.93-8.16-2.92-6.31,0-13.28,4.88l-2.32-4.56q8.08-5.44,16.24-5.44t12.84,4.4q4.6,4.39,4.6,12.4v17c0,1.65.75,2.51,2.24,2.56V325c-.75.1-1.36.19-1.84.24a14.7,14.7,0,0,1-1.52.08,4.47,4.47,0,0,1-3.32-1.24,5.11,5.11,0,0,1-1.48-3l-.16-3a18.11,18.11,0,0,1-7.08,5.72A21.84,21.84,0,0,1,65.2,325.78ZM67,320.5a17.5,17.5,0,0,0,7-1.4A11.48,11.48,0,0,0,79,315.38a4.44,4.44,0,0,0,1.52-3.12V306.1a29,29,0,0,0-10.64-2,15.11,15.11,0,0,0-8.6,2.24,6.78,6.78,0,0,0-3.32,5.84,8,8,0,0,0,.68,3.28,7.8,7.8,0,0,0,1.92,2.64,9.22,9.22,0,0,0,2.92,1.76A10,10,0,0,0,67,320.5Z" transform="translate(-0.8 -35.25)"/><path class="cls-1" d="M97.6,266.58h7v47.6a5.09,5.09,0,0,0,1.24,3.64,4.55,4.55,0,0,0,3.48,1.32,9.2,9.2,0,0,0,2.08-.28,17.31,17.31,0,0,0,2.24-.68l1.12,5.68a23.09,23.09,0,0,1-4.16,1.2,22,22,0,0,1-4.24.48,8.1,8.1,0,0,1-8.8-8.8Z" transform="translate(-0.8 -35.25)"/><path class="cls-1" d="M131.84,325.78q-6.57,0-9.92-4.4t-3.36-13.12v-25h7V306.9q0,12.8,8.88,12.8a13.58,13.58,0,0,0,8.12-2.76,16.32,16.32,0,0,0,5.64-7.56V283.22h7v33.12c0,1.65.74,2.51,2.24,2.56V325c-.8.1-1.43.17-1.88.2s-.9,0-1.32,0a5,5,0,0,1-3.48-1.24,4.17,4.17,0,0,1-1.48-3.08L149.2,316a19.36,19.36,0,0,1-7.36,7.24A20.35,20.35,0,0,1,131.84,325.78Z" transform="translate(-0.8 -35.25)"/><path class="cls-1" d="M184.16,325.78a21.19,21.19,0,0,1-8.64-1.72,20.39,20.39,0,0,1-6.72-4.68,21.24,21.24,0,0,1-4.36-6.92,22.61,22.61,0,0,1-1.56-8.36,22.29,22.29,0,0,1,1.56-8.32,20.91,20.91,0,0,1,19.8-13.28,20.3,20.3,0,0,1,19.4,13.24,22.54,22.54,0,0,1,1.48,8c0,.59,0,1.12,0,1.6a9.83,9.83,0,0,1-.12,1.12H170.32a16.21,16.21,0,0,0,1.44,5.68,14.61,14.61,0,0,0,3.12,4.4,14.26,14.26,0,0,0,4.36,2.88,13,13,0,0,0,5.16,1,13.65,13.65,0,0,0,3.76-.52,16.54,16.54,0,0,0,3.44-1.4,12.32,12.32,0,0,0,2.84-2.16,8.91,8.91,0,0,0,1.88-2.88l6.08,1.68a15.45,15.45,0,0,1-2.84,4.24,18.81,18.81,0,0,1-4.16,3.32,21.6,21.6,0,0,1-5.24,2.2A22.45,22.45,0,0,1,184.16,325.78Zm14.32-24.48a15.2,15.2,0,0,0-1.48-5.48,14.73,14.73,0,0,0-3.12-4.28,14.18,14.18,0,0,0-4.36-2.76,14.44,14.44,0,0,0-10.56,0,13.53,13.53,0,0,0-4.36,2.8,14,14,0,0,0-3,4.28,15.58,15.58,0,0,0-1.4,5.44Z" transform="translate(-0.8 -35.25)"/><path class="cls-1" d="M270.16,318.58V325H231.6v-56.8h37.84v6.4H238.8V293h26.64v6H238.8v19.6Z" transform="translate(-0.8 -35.25)"/><path class="cls-1" d="M280.24,283.22l11.44,15.36.64,1.28.72-1.28,11.36-15.36h7.44l-15.6,21L311.92,325h-7.44L293,309.7l-.72-1.2-.64,1.2L280.24,325H272.8l15.68-20.8-15.6-21Z" transform="translate(-0.8 -35.25)"/><path class="cls-1" d="M312.48,304A22.67,22.67,0,0,1,314,295.7a20.41,20.41,0,0,1,4.32-6.84,20.74,20.74,0,0,1,6.68-4.64,21.12,21.12,0,0,1,8.68-1.72,20.26,20.26,0,0,1,10.76,2.76,18,18,0,0,1,6.84,7.4l-6.88,2.16a11.47,11.47,0,0,0-4.48-4.6,12.76,12.76,0,0,0-6.4-1.64,13.06,13.06,0,0,0-5.44,1.16,12.75,12.75,0,0,0-4.4,3.24,15.88,15.88,0,0,0-2.92,4.88,17,17,0,0,0-1.08,6.16,16.76,16.76,0,0,0,1.12,6.16,16.13,16.13,0,0,0,3,5,13.72,13.72,0,0,0,4.4,3.32,12.4,12.4,0,0,0,5.4,1.2,13,13,0,0,0,3.64-.52,14,14,0,0,0,3.28-1.4,12.89,12.89,0,0,0,2.6-2,7,7,0,0,0,1.6-2.52l6.88,2.08a14.9,14.9,0,0,1-2.68,4.24,17,17,0,0,1-4,3.28,21.73,21.73,0,0,1-5.16,2.16,22,22,0,0,1-6,.8,20.85,20.85,0,0,1-15.36-6.48,21.24,21.24,0,0,1-4.36-6.92A22.61,22.61,0,0,1,312.48,304Z" transform="translate(-0.8 -35.25)"/><path class="cls-1" d="M394.47,325h-7V301.62c0-4.32-.74-7.53-2.24-9.64a7.52,7.52,0,0,0-6.56-3.16,11.07,11.07,0,0,0-4.16.84,15.56,15.56,0,0,0-3.88,2.28,16.71,16.71,0,0,0-3.2,3.44,15.31,15.31,0,0,0-2.12,4.4V325h-7v-58.4h7v25.6a18.52,18.52,0,0,1,6.72-7.12,17.6,17.6,0,0,1,9.28-2.56,13.08,13.08,0,0,1,6.24,1.36,10.83,10.83,0,0,1,4.08,3.68,15.91,15.91,0,0,1,2.2,5.56,33.22,33.22,0,0,1,.68,6.92Z" transform="translate(-0.8 -35.25)"/><path class="cls-1" d="M414.79,325.78a15.2,15.2,0,0,1-5.52-1,14,14,0,0,1-4.44-2.76,13,13,0,0,1-3-4.12,12.23,12.23,0,0,1-1.08-5.16,10.84,10.84,0,0,1,1.28-5.24,12,12,0,0,1,3.64-4,18.85,18.85,0,0,1,5.6-2.64,24.84,24.84,0,0,1,7.08-1,35.11,35.11,0,0,1,6.16.56,28.18,28.18,0,0,1,5.52,1.52v-3.36a11,11,0,0,0-2.88-8q-2.88-2.93-8.16-2.92-6.31,0-13.28,4.88l-2.32-4.56q8.08-5.44,16.24-5.44t12.84,4.4q4.61,4.39,4.6,12.4v17c0,1.65.75,2.51,2.24,2.56V325c-.74.1-1.36.19-1.84.24a14.55,14.55,0,0,1-1.52.08,4.49,4.49,0,0,1-3.32-1.24,5.16,5.16,0,0,1-1.48-3l-.16-3a18,18,0,0,1-7.08,5.72A21.81,21.81,0,0,1,414.79,325.78Zm1.84-5.28a17.5,17.5,0,0,0,7-1.4,11.48,11.48,0,0,0,4.92-3.72,4.41,4.41,0,0,0,1.52-3.12V306.1a29,29,0,0,0-10.64-2,15.13,15.13,0,0,0-8.6,2.24,6.78,6.78,0,0,0-3.32,5.84,8,8,0,0,0,.68,3.28,8.08,8.08,0,0,0,1.92,2.64,9.22,9.22,0,0,0,2.92,1.76A10,10,0,0,0,416.63,320.5Z" transform="translate(-0.8 -35.25)"/><path class="cls-1" d="M483.27,325h-7V301.62q0-6.72-2-9.76a6.94,6.94,0,0,0-6.2-3,11.84,11.84,0,0,0-4.32.84,17.12,17.12,0,0,0-4.08,2.28,15.9,15.9,0,0,0-3.36,3.44,14.67,14.67,0,0,0-2.16,4.4V325h-7V283.22h6.4v9a18.43,18.43,0,0,1,7.16-7,20.41,20.41,0,0,1,10.2-2.64,12.33,12.33,0,0,1,6,1.32,10.2,10.2,0,0,1,3.84,3.68,16.38,16.38,0,0,1,2,5.56,37.76,37.76,0,0,1,.6,7Z" transform="translate(-0.8 -35.25)"/><path class="cls-1" d="M509.51,325.46a17.44,17.44,0,0,1-7.8-1.76,19.4,19.4,0,0,1-6.12-4.72,21.82,21.82,0,0,1-4-6.8,23.27,23.27,0,0,1-1.4-8,25,25,0,0,1,1.4-8.36,21.53,21.53,0,0,1,4-6.92,19,19,0,0,1,6.12-4.68,17.85,17.85,0,0,1,7.88-1.72,16,16,0,0,1,9.12,2.56,23.51,23.51,0,0,1,6.48,6.48v-8.32h6.24V324.5a17.6,17.6,0,0,1-1.68,7.88,16.9,16.9,0,0,1-4.56,5.72,20.22,20.22,0,0,1-6.76,3.52,27.81,27.81,0,0,1-8.28,1.2q-7.11,0-11.56-2.44a21.44,21.44,0,0,1-7.4-6.76l4.08-3.6a15.71,15.71,0,0,0,6.4,5.52,19.83,19.83,0,0,0,8.48,1.84,18.62,18.62,0,0,0,5.48-.8,12.89,12.89,0,0,0,4.52-2.4,11.81,11.81,0,0,0,3.08-4,12.86,12.86,0,0,0,1.16-5.68v-7.36a17.58,17.58,0,0,1-2.84,3.48,17.76,17.76,0,0,1-3.56,2.64,16.84,16.84,0,0,1-4.08,1.64A17.58,17.58,0,0,1,509.51,325.46Zm2.16-5.76a12,12,0,0,0,4.32-.8,15.62,15.62,0,0,0,3.84-2.12,13.56,13.56,0,0,0,3-3,9.48,9.48,0,0,0,1.6-3.44v-12a15.42,15.42,0,0,0-2.28-3.92,17.06,17.06,0,0,0-3.16-3.08,14.1,14.1,0,0,0-3.8-2,12.29,12.29,0,0,0-4.12-.72,11.82,11.82,0,0,0-5.72,1.36,13.76,13.76,0,0,0-4.28,3.6,17,17,0,0,0-2.72,5.08,17.74,17.74,0,0,0-1,5.72,16,16,0,0,0,4.16,10.8,14.74,14.74,0,0,0,4.52,3.32A12.93,12.93,0,0,0,511.67,319.7Z" transform="translate(-0.8 -35.25)"/><path class="cls-1" d="M559.91,325.78a21.23,21.23,0,0,1-8.64-1.72,20.6,20.6,0,0,1-6.72-4.68,21.41,21.41,0,0,1-4.36-6.92,22.61,22.61,0,0,1-1.56-8.36,22.29,22.29,0,0,1,1.56-8.32A20.91,20.91,0,0,1,560,282.5a20.63,20.63,0,0,1,8.6,1.76,20.26,20.26,0,0,1,6.6,4.68,20.79,20.79,0,0,1,4.2,6.8,22.33,22.33,0,0,1,1.48,8c0,.59,0,1.12,0,1.6a6.69,6.69,0,0,1-.12,1.12H546.07a16.21,16.21,0,0,0,1.44,5.68,14.61,14.61,0,0,0,3.12,4.4,14.26,14.26,0,0,0,4.36,2.88,13.11,13.11,0,0,0,5.16,1,13.6,13.6,0,0,0,3.76-.52,16.11,16.11,0,0,0,3.44-1.4,12.11,12.11,0,0,0,2.84-2.16,8.59,8.59,0,0,0,1.88-2.88l6.08,1.68a15.23,15.23,0,0,1-2.84,4.24,18.59,18.59,0,0,1-4.16,3.32,21.43,21.43,0,0,1-5.24,2.2A22.45,22.45,0,0,1,559.91,325.78Zm14.32-24.48a15,15,0,0,0-1.48-5.48,14.73,14.73,0,0,0-3.12-4.28,14.06,14.06,0,0,0-4.36-2.76,14.44,14.44,0,0,0-10.56,0,13.64,13.64,0,0,0-4.36,2.8,14.21,14.21,0,0,0-3,4.28,15.81,15.81,0,0,0-1.4,5.44Z" transform="translate(-0.8 -35.25)"/><path class="cls-1" d="M607.35,325v-56.8H631a15.42,15.42,0,0,1,6.92,1.56,17.41,17.41,0,0,1,5.44,4.16,19.74,19.74,0,0,1,3.56,5.84,17.89,17.89,0,0,1,1.28,6.6,19.64,19.64,0,0,1-1.2,6.8,18.7,18.7,0,0,1-3.4,5.84,16.51,16.51,0,0,1-5.28,4.08,15.27,15.27,0,0,1-6.84,1.52h-17V325Zm7.2-26.8h16.56a8.8,8.8,0,0,0,4-.92,9.13,9.13,0,0,0,3.08-2.56,12.62,12.62,0,0,0,2-3.8,14.33,14.33,0,0,0,.72-4.56,12.76,12.76,0,0,0-3.08-8.4,9.89,9.89,0,0,0-3.28-2.48,9.16,9.16,0,0,0-4-.88H614.55Z" transform="translate(-0.8 -35.25)"/><path class="cls-1" d="M654.87,266.58h7v47.6a5.09,5.09,0,0,0,1.24,3.64,4.55,4.55,0,0,0,3.48,1.32,9.13,9.13,0,0,0,2.08-.28,16.84,16.84,0,0,0,2.24-.68l1.12,5.68a22.85,22.85,0,0,1-4.16,1.2,21.9,21.9,0,0,1-4.24.48,8.1,8.1,0,0,1-8.8-8.8Z" transform="translate(-0.8 -35.25)"/><path class="cls-1" d="M687,325.78a15.2,15.2,0,0,1-5.52-1A13.77,13.77,0,0,1,677,322a13,13,0,0,1-3-4.12,12.23,12.23,0,0,1-1.08-5.16,10.84,10.84,0,0,1,1.28-5.24,11.94,11.94,0,0,1,3.64-4,18.73,18.73,0,0,1,5.6-2.64,24.84,24.84,0,0,1,7.08-1,35.11,35.11,0,0,1,6.16.56,28.18,28.18,0,0,1,5.52,1.52v-3.36a11,11,0,0,0-2.88-8q-2.88-2.93-8.16-2.92-6.32,0-13.28,4.88l-2.32-4.56q8.08-5.44,16.24-5.44t12.84,4.4q4.61,4.39,4.6,12.4v17c0,1.65.75,2.51,2.24,2.56V325c-.75.1-1.36.19-1.84.24a14.7,14.7,0,0,1-1.52.08,4.47,4.47,0,0,1-3.32-1.24,5.11,5.11,0,0,1-1.48-3l-.16-3a18.11,18.11,0,0,1-7.08,5.72A21.87,21.87,0,0,1,687,325.78Zm1.84-5.28a17.5,17.5,0,0,0,7-1.4,11.48,11.48,0,0,0,4.92-3.72,4.44,4.44,0,0,0,1.52-3.12V306.1a29,29,0,0,0-10.64-2,15.11,15.11,0,0,0-8.6,2.24,6.78,6.78,0,0,0-3.32,5.84,8,8,0,0,0,.68,3.28,7.8,7.8,0,0,0,1.92,2.64,9.22,9.22,0,0,0,2.92,1.76A10,10,0,0,0,688.79,320.5Z" transform="translate(-0.8 -35.25)"/><path class="cls-1" d="M740.47,322.9c-.43.21-1,.47-1.68.76s-1.48.59-2.36.88a21.63,21.63,0,0,1-2.88.72,19,19,0,0,1-3.24.28,10.69,10.69,0,0,1-6.64-2.12q-2.8-2.12-2.8-6.6V288.74h-5.68v-5.52h5.68V269.3h7v13.92h9.36v5.52h-9.36v25.92a4.32,4.32,0,0,0,1.52,3.36,5.12,5.12,0,0,0,3.2,1,10.36,10.36,0,0,0,3.8-.68,15.81,15.81,0,0,0,2.36-1.08Z" transform="translate(-0.8 -35.25)"/><path class="cls-1" d="M747.91,325V288.74h-5.68v-5.52h5.68v-.88q0-7.75,3.44-12.16a11.25,11.25,0,0,1,9.36-4.4,18,18,0,0,1,4.88.68,16.57,16.57,0,0,1,4.32,1.88l-1.76,5.2a9.29,9.29,0,0,0-2.76-1.28,11.56,11.56,0,0,0-3.24-.48,6.11,6.11,0,0,0-5.36,2.64q-1.85,2.64-1.84,7.68v1.12h11.12v5.52H755V325Z" transform="translate(-0.8 -35.25)"/><path class="cls-1" d="M789,325.78a20.49,20.49,0,0,1-15.24-6.48,21.18,21.18,0,0,1-4.28-6.88,23,23,0,0,1,0-16.56,21.8,21.8,0,0,1,4.32-6.88,21,21,0,0,1,30.4,0,21.8,21.8,0,0,1,4.32,6.88,22.29,22.29,0,0,1,1.56,8.32,22.65,22.65,0,0,1-1.52,8.24,20.77,20.77,0,0,1-11,11.6A20.66,20.66,0,0,1,789,325.78Zm-13.84-21.52a16.75,16.75,0,0,0,1.08,6.08,15.41,15.41,0,0,0,3,4.88,13.89,13.89,0,0,0,4.4,3.28,12.75,12.75,0,0,0,10.8,0,14.21,14.21,0,0,0,4.44-3.32,15.53,15.53,0,0,0,3-5A17,17,0,0,0,803,304.1a16.85,16.85,0,0,0-1.08-6,15.53,15.53,0,0,0-3-5,14.21,14.21,0,0,0-4.44-3.32,12.4,12.4,0,0,0-5.4-1.2,12,12,0,0,0-5.4,1.24,14.29,14.29,0,0,0-4.4,3.36,15.8,15.8,0,0,0-3,5A17,17,0,0,0,775.19,304.26Z" transform="translate(-0.8 -35.25)"/><path class="cls-1" d="M839.43,289.38a18.09,18.09,0,0,0-9.32,2.72,13.85,13.85,0,0,0-5.72,7.12V325h-7V283.22h6.56v9.68a19.69,19.69,0,0,1,5.68-7,14,14,0,0,1,7.52-3h1.36a5.3,5.3,0,0,1,1,.08Z" transform="translate(-0.8 -35.25)"/><path class="cls-1" d="M908,325h-7V301.62q0-6.56-2.12-9.68a7.11,7.11,0,0,0-6.28-3.12,11.19,11.19,0,0,0-7.72,3.08,16.91,16.91,0,0,0-4.84,8V325h-7V301.62c0-4.48-.7-7.73-2.08-9.76a7.06,7.06,0,0,0-6.24-3,11.39,11.39,0,0,0-7.68,3,16.23,16.23,0,0,0-4.88,8V325h-7V283.22h6.4v9a18.93,18.93,0,0,1,6.64-7.16,17.13,17.13,0,0,1,9.2-2.52,11.88,11.88,0,0,1,8.36,2.84,12.28,12.28,0,0,1,3.8,7.32q5.6-10.16,15.92-10.16a12.58,12.58,0,0,1,6,1.32,10.16,10.16,0,0,1,3.88,3.68,17.06,17.06,0,0,1,2.08,5.56,36,36,0,0,1,.64,7Z" transform="translate(-0.8 -35.25)"/><path class="cls-1" d="M932.23,325.78a32.38,32.38,0,0,1-9.92-1.56,24.38,24.38,0,0,1-8.4-4.52l3-4.72a29.25,29.25,0,0,0,7.36,4.2,21.7,21.7,0,0,0,7.76,1.4,12.82,12.82,0,0,0,7.24-1.8A5.78,5.78,0,0,0,942,313.7a4.59,4.59,0,0,0-.72-2.6,6,6,0,0,0-2.16-1.88,18.1,18.1,0,0,0-3.68-1.44q-2.25-.64-5.2-1.36-3.76-1-6.48-1.84a17.51,17.51,0,0,1-4.48-2.08,7.21,7.21,0,0,1-2.56-2.88,9.56,9.56,0,0,1-.8-4.16,12.07,12.07,0,0,1,1.24-5.56,11.59,11.59,0,0,1,3.4-4.08,15.34,15.34,0,0,1,5.08-2.48,22.59,22.59,0,0,1,6.28-.84,25.11,25.11,0,0,1,8.8,1.52,21.68,21.68,0,0,1,6.88,4l-3.2,4.24a17.92,17.92,0,0,0-5.92-3.48,20.13,20.13,0,0,0-6.72-1.16,12.28,12.28,0,0,0-6.52,1.64,5.67,5.67,0,0,0-2.68,5.24,5,5,0,0,0,.52,2.4,4.48,4.48,0,0,0,1.72,1.68,13.29,13.29,0,0,0,3.08,1.28c1.25.37,2.76.77,4.52,1.2q4.15,1,7.24,2a20.9,20.9,0,0,1,5.12,2.36,9.13,9.13,0,0,1,3,3.2,9.36,9.36,0,0,1,1,4.48,11.11,11.11,0,0,1-4.48,9.28Q939.83,325.77,932.23,325.78Z" transform="translate(-0.8 -35.25)"/><path class="cls-1" d="M989.26,325.78a32.43,32.43,0,0,1-9.92-1.56,24.57,24.57,0,0,1-8.4-4.52l3-4.72a29.6,29.6,0,0,0,7.36,4.2,21.74,21.74,0,0,0,7.76,1.4,12.8,12.8,0,0,0,7.24-1.8A5.76,5.76,0,0,0,999,313.7a4.59,4.59,0,0,0-.72-2.6,6,6,0,0,0-2.16-1.88,17.87,17.87,0,0,0-3.68-1.44q-2.24-.64-5.2-1.36-3.75-1-6.48-1.84a17.83,17.83,0,0,1-4.48-2.08,7.36,7.36,0,0,1-2.56-2.88,9.7,9.7,0,0,1-.8-4.16,12.2,12.2,0,0,1,1.24-5.56,11.7,11.7,0,0,1,3.4-4.08,15.43,15.43,0,0,1,5.08-2.48,22.64,22.64,0,0,1,6.28-.84,25.07,25.07,0,0,1,8.8,1.52,21.57,21.57,0,0,1,6.88,4l-3.2,4.24a17.82,17.82,0,0,0-5.92-3.48,20,20,0,0,0-6.72-1.16,12.3,12.3,0,0,0-6.52,1.64,5.69,5.69,0,0,0-2.68,5.24,5.07,5.07,0,0,0,.52,2.4,4.55,4.55,0,0,0,1.72,1.68,13.48,13.48,0,0,0,3.08,1.28c1.26.37,2.76.77,4.52,1.2q4.17,1,7.24,2a20.73,20.73,0,0,1,5.12,2.36,9,9,0,0,1,3,3.2,9.24,9.24,0,0,1,1,4.48,11.08,11.08,0,0,1-4.48,9.28Q996.87,325.77,989.26,325.78Z" transform="translate(-0.8 -35.25)"/><path class="cls-1" d="M1012.78,275.38v-8.8h7v8.8Zm0,49.6V283.22h7V325Z" transform="translate(-0.8 -35.25)"/><path class="cls-1" d="M1092.78,325h-7V301.62c0-4.37-.7-7.6-2.12-9.68a7.09,7.09,0,0,0-6.28-3.12,11.21,11.21,0,0,0-7.72,3.08,17,17,0,0,0-4.84,8V325h-7V301.62q0-6.72-2.08-9.76a7,7,0,0,0-6.24-3,11.42,11.42,0,0,0-7.68,3,16.3,16.3,0,0,0-4.88,8V325h-7V283.22h6.4v9a19,19,0,0,1,6.64-7.16,17.16,17.16,0,0,1,9.2-2.52,11.86,11.86,0,0,1,8.36,2.84,12.23,12.23,0,0,1,3.8,7.32q5.61-10.16,15.92-10.16a12.55,12.55,0,0,1,6,1.32,10.09,10.09,0,0,1,3.88,3.68,16.84,16.84,0,0,1,2.08,5.56,35.21,35.21,0,0,1,.64,7Z" transform="translate(-0.8 -35.25)"/><path class="cls-1" d="M1124.86,325.78a16.46,16.46,0,0,1-9.16-2.56,19.53,19.53,0,0,1-6.28-6.48V342h-7v-58.8h6.24v7.84a19.29,19.29,0,0,1,6.44-6.2,16.82,16.82,0,0,1,8.76-2.36,17.83,17.83,0,0,1,7.92,1.76A19.79,19.79,0,0,1,1138,289a22.38,22.38,0,0,1,4.12,6.92,22.81,22.81,0,0,1,1.48,8.16,25.7,25.7,0,0,1-1.36,8.44,21.24,21.24,0,0,1-3.84,6.88,18.6,18.6,0,0,1-5.92,4.64A16.71,16.71,0,0,1,1124.86,325.78Zm-2.16-6.08a12,12,0,0,0,5.64-1.32,13.75,13.75,0,0,0,4.32-3.52,16,16,0,0,0,2.76-5,17.67,17.67,0,0,0,1-5.76,16,16,0,0,0-1.12-6,16.18,16.18,0,0,0-3-5,14.54,14.54,0,0,0-4.52-3.36,12.86,12.86,0,0,0-5.64-1.24,11.24,11.24,0,0,0-4,.76,17.53,17.53,0,0,0-3.84,2,13.71,13.71,0,0,0-3.12,3,9,9,0,0,0-1.72,3.64v11.92a18,18,0,0,0,2.24,3.88,15.9,15.9,0,0,0,3.12,3.12,15.6,15.6,0,0,0,3.76,2.08A11.57,11.57,0,0,0,1122.7,319.7Z" transform="translate(-0.8 -35.25)"/><path class="cls-1" d="M1151,266.58h7v47.6a5.09,5.09,0,0,0,1.24,3.64,4.55,4.55,0,0,0,3.48,1.32,9.13,9.13,0,0,0,2.08-.28,16.84,16.84,0,0,0,2.24-.68l1.12,5.68a22.85,22.85,0,0,1-4.16,1.2,21.9,21.9,0,0,1-4.24.48,8.1,8.1,0,0,1-8.8-8.8Z" transform="translate(-0.8 -35.25)"/><path class="cls-1" d="M1172.38,275.38v-8.8h7v8.8Zm0,49.6V283.22h7V325Z" transform="translate(-0.8 -35.25)"/><path class="cls-1" d="M1191.66,288.74H1186v-5.52h5.68v-.88a19.57,19.57,0,0,1,1-6.08,16,16,0,0,1,2.88-5.28,14.58,14.58,0,0,1,4.8-3.76,15,15,0,0,1,6.8-1.44,20,20,0,0,1,7.8,1.4,30.67,30.67,0,0,1,5.32,2.76l-3,5.2a13.85,13.85,0,0,0-4.16-2.32,15.62,15.62,0,0,0-5.52-1,8,8,0,0,0-4,.92,8.62,8.62,0,0,0-2.72,2.36,9.93,9.93,0,0,0-1.6,3.28,13.35,13.35,0,0,0-.52,3.68v1.12h21.36V325h-7V288.74H1198.7V325h-7Z" transform="translate(-0.8 -35.25)"/><path class="cls-1" d="M1248.54,325.78a21.19,21.19,0,0,1-8.64-1.72,20.6,20.6,0,0,1-6.72-4.68,21.24,21.24,0,0,1-4.36-6.92,22.61,22.61,0,0,1-1.56-8.36,22.29,22.29,0,0,1,1.56-8.32,20.91,20.91,0,0,1,19.8-13.28,20.63,20.63,0,0,1,8.6,1.76,20.26,20.26,0,0,1,6.6,4.68,20.79,20.79,0,0,1,4.2,6.8,22.33,22.33,0,0,1,1.48,8c0,.59,0,1.12,0,1.6a9.83,9.83,0,0,1-.12,1.12H1234.7a16.21,16.21,0,0,0,1.44,5.68,14.61,14.61,0,0,0,3.12,4.4,14.26,14.26,0,0,0,4.36,2.88,13.11,13.11,0,0,0,5.16,1,13.65,13.65,0,0,0,3.76-.52,16.32,16.32,0,0,0,3.44-1.4,12.11,12.11,0,0,0,2.84-2.16,8.75,8.75,0,0,0,1.88-2.88l6.08,1.68a15.23,15.23,0,0,1-2.84,4.24,18.81,18.81,0,0,1-4.16,3.32,21.43,21.43,0,0,1-5.24,2.2A22.45,22.45,0,0,1,1248.54,325.78Zm14.32-24.48a15,15,0,0,0-1.48-5.48,14.73,14.73,0,0,0-3.12-4.28,14.06,14.06,0,0,0-4.36-2.76,14.44,14.44,0,0,0-10.56,0,13.64,13.64,0,0,0-4.36,2.8,14.21,14.21,0,0,0-3,4.28,15.81,15.81,0,0,0-1.4,5.44Z" transform="translate(-0.8 -35.25)"/><path class="cls-1" d="M1293.18,325.78a18.34,18.34,0,0,1-8-1.76,19.88,19.88,0,0,1-6.32-4.72,21.85,21.85,0,0,1-4.12-6.88,23,23,0,0,1-1.48-8.24,25,25,0,0,1,1.4-8.36,21.63,21.63,0,0,1,3.92-6.92,18.75,18.75,0,0,1,6-4.68,17,17,0,0,1,7.64-1.72,15.85,15.85,0,0,1,9,2.64,20.8,20.8,0,0,1,6.28,6.4v-25h7v49.76c0,1.65.75,2.51,2.24,2.56V325l-1.8.24a12,12,0,0,1-1.32.08,5.29,5.29,0,0,1-3.64-1.4,4.23,4.23,0,0,1-1.56-3.24v-3.52a18,18,0,0,1-15.28,8.64Zm1.68-6.08a11.87,11.87,0,0,0,4-.72,15.62,15.62,0,0,0,3.84-2,14.34,14.34,0,0,0,3.12-3,9,9,0,0,0,1.72-3.64v-12a13.31,13.31,0,0,0-2.16-3.8,17.06,17.06,0,0,0-3.24-3.12,15.91,15.91,0,0,0-3.84-2.08,11.45,11.45,0,0,0-4-.76,12,12,0,0,0-5.64,1.32,13.75,13.75,0,0,0-4.32,3.52,16,16,0,0,0-2.76,5,18,18,0,0,0-1,5.8,16,16,0,0,0,1.12,6,15.75,15.75,0,0,0,3,4.92,14.74,14.74,0,0,0,4.52,3.32A12.86,12.86,0,0,0,1294.86,319.7Z" transform="translate(-0.8 -35.25)"/><path class="cls-1" d="M100.89,61.19a80,80,0,1,1-80,80,80.09,80.09,0,0,1,80-80m0-20a100,100,0,1,0,100,100,100,100,0,0,0-100-100Z" transform="translate(-0.8 -35.25)"/><path class="cls-1" d="M157.59,131.53l-76-43.91a10,10,0,0,0-15,8.66v87.81a10,10,0,0,0,15,8.67l76.05-43.91A10,10,0,0,0,157.59,131.53Z" transform="translate(-0.8 -35.25)"/><rect class="cls-1" x="0.09" y="165.94" width="40" height="40" rx="20"/><rect class="cls-1" x="0.09" y="95.94" width="20" height="100" rx="10"/><rect class="cls-1" x="50.89" y="181.19" width="20" height="100" rx="10" transform="translate(-171.1 256.83) rotate(-90)"/></g></g></svg>